<svg width="66" height="148" viewBox="0 0 66 148" fill="none" xmlns="http://www.w3.org/2000/svg">
<path fill-rule="evenodd" clip-rule="evenodd" d="M32.9985 82.7939C34.1031 82.7939 34.9985 83.6894 34.9985 84.7939V141.414L62.0819 118.991C62.9327 118.287 64.1935 118.406 64.8979 119.257C65.6023 120.107 65.4836 121.368 64.6327 122.073L34.2739 147.207C33.534 147.819 32.463 147.819 31.7231 147.207L1.36428 122.073C0.513457 121.368 0.394754 120.107 1.09915 119.257C1.80355 118.406 3.0643 118.287 3.91512 118.991L30.9985 141.414V84.7939C30.9985 83.6894 31.8939 82.7939 32.9985 82.7939Z" fill="white"/>
<path fill-rule="evenodd" clip-rule="evenodd" d="M33.0005 102.809C31.896 102.809 31.0005 101.913 31.0005 100.809L31.0005 7.20513L3.91714 29.6274C3.06632 30.3318 1.80556 30.2131 1.10117 29.3623C0.396771 28.5115 0.515477 27.2507 1.3663 26.5463L31.7251 1.41231C32.465 0.799711 33.536 0.799711 34.276 1.41231L64.6348 26.5463C65.4856 27.2507 65.6043 28.5115 64.8999 29.3623C64.1955 30.2131 62.9347 30.3318 62.0839 29.6274L35.0005 7.20514L35.0005 100.809C35.0005 101.913 34.1051 102.809 33.0005 102.809Z" fill="white"/>
</svg>
